<svg id="Hexels SVG Export" xmlns="http://www.w3.org/2000/svg" version="1.1" xmlns:xlink="http://www.w3.org/1999/xlink" viewBox="0 -0 1787 1032" xml:space="preserve">
<g id="Root" transform="matrix(1.000, 0.000, 0.000, 1.000, 0.000, -0.000)">
<g id="Layer 1" transform="matrix(1.000, 0.000, 0.000, 1.000, 0.000, -0.000)">
<path d="M 819.26,41.92 L 743.85,85.47 L 743.84,171.47 L 669.37,214.47 L 669.37,301.54 L 744.78,345.07 L 820.19,301.53 L 820.19,215.53 L 893.74,173.07 L 967.28,215.54 L 967.28,300.47 L 892.80,343.47 L 892.80,429.47 L 818.32,472.47 L 818.33,559.54 L 893.74,603.08 L 969.14,559.53 L 969.15,473.53 L 1043.62,430.53 L 1043.62,344.53 L 1118.10,301.53 L 1118.10,214.46 L 1043.62,171.46 L 1043.62,85.46 L 968.21,41.93 L 893.73,84.93 L 819.26,41.92  z
" style="fill:#ffbd7e;fill-opacity:1.00"/>
<path d="M 620.74,299.93 L 371.99,300.00 L 297.37,430.93 L 595.97,431.07 L 621.72,387.00 L 596.88,344.19 L 634.01,323.01 L 620.74,299.93  z
" style="fill:#006241;fill-opacity:1.00"/>
<path d="M 1415.43,299.98 L 1117.00,299.94 L 1141.45,344.93 L 1191.12,344.94 L 1215.40,387.01 L 1191.48,431.06 L 1490.10,430.93 L 1415.43,299.98  z
" style="fill:#006241;fill-opacity:1.00"/>
<path d="M 671.37,387.09 L 633.59,321.57 L 594.77,343.79 L 619.57,387.01 L 594.79,429.71 L 594.90,473.55 L 621.45,473.71 L 671.37,387.09  z
" style="fill:#b8bd7e;fill-opacity:1.00"/>
<path d="M 1142.53,343.07 L 1116.24,300.46 L 1116.14,387.30 L 1166.01,473.71 L 1192.57,473.54 L 1192.68,430.29 L 1217.55,386.99 L 1192.19,343.07 L 1142.53,343.07  z
" style="fill:#b8bd7e;fill-opacity:1.00"/>
<path d="M 595.98,428.94 L 297.61,428.97 L 297.56,517.01 L 546.34,517.06 L 571.71,473.80 L 596.77,473.51 L 595.98,428.94  z
" style="fill:#00bd7e;fill-opacity:1.00"/>
<path d="M 1489.85,428.97 L 1191.49,428.94 L 1190.71,473.53 L 1215.78,473.82 L 1241.13,517.06 L 1489.92,517.01 L 1489.85,428.97  z
" style="fill:#00bd7e;fill-opacity:1.00"/>
<path d="M 744.81,600.93 L 148.75,600.94 L 74.26,732.05 L 769.67,732.07 L 745.72,688.52 L 782.03,710.57 L 795.49,687.80 L 770.66,644.78 L 782.94,622.95 L 744.81,600.93  z
" style="fill:#006241;fill-opacity:1.00"/>
<path d="M 1638.72,600.94 L 1042.61,600.93 L 1041.75,644.47 L 1016.79,645.02 L 1041.61,688.01 L 1017.79,732.07 L 1713.21,732.05 L 1638.72,600.94  z
" style="fill:#006241;fill-opacity:1.00"/>
<path d="M 1043.76,688.00 L 1005.45,665.42 L 991.96,688.00 L 1005.45,710.58 L 1043.76,688.00  z
" style="fill:#006241;fill-opacity:1.00"/>
<path d="M 893.73,686.92 L 818.32,730.47 L 818.33,817.54 L 893.74,861.08 L 969.14,817.53 L 969.14,730.46 L 893.73,686.92  z
" style="fill:#ffbd7e;fill-opacity:1.00"/>
<path d="M 769.67,729.93 L 74.16,729.97 L 74.34,947.07 L 1713.13,947.07 L 1713.32,729.98 L 1042.62,729.93 L 1041.70,773.58 L 967.67,902.07 L 819.79,902.07 L 745.81,773.70 L 769.67,729.93  z
" style="fill:#00bd7e;fill-opacity:1.00"/>
<path d="M 769.60,729.92 L 743.74,774.30 L 818.72,903.93 L 968.47,904.04 L 993.58,859.07 L 893.56,858.94 L 856.47,880.43 L 844.60,859.06 L 820.18,859.45 L 820.18,816.45 L 782.94,794.94 L 795.48,773.78 L 769.60,729.92  z
" style="fill:#b8bd7e;fill-opacity:1.00"/>
<g>
<polygon points="1017.86,817.00 1042.69,774.00 1005.45,795.50 " style="fill:#b8bd7e;;stroke:#b8bd7e;stroke-width:0.03;stroke-opacity:1.00"/>
</g>
<path d="M 993.04,861.08 L 1018.80,816.47 L 967.28,816.46 L 993.04,861.08  z
" style="fill:#b8bd7e;fill-opacity:1.00"/>
</g>
</g></svg>
